<mxfile host="app.diagrams.net" modified="2023-01-25T22:41:25.029Z" agent="5.0 (Windows NT 10.0; Win64; x64) AppleWebKit/537.36 (KHTML, like Gecko) Chrome/109.0.0.0 Safari/537.36" etag="V14I5_ueMbw02gIS1j87" version="20.5.1" type="github">
  <diagram id="ZbTmdw-k6q-wAIDvrsB2" name="Page-1">
    <mxGraphModel dx="1690" dy="1863" grid="1" gridSize="10" guides="1" tooltips="1" connect="1" arrows="1" fold="1" page="1" pageScale="1" pageWidth="850" pageHeight="1100" math="0" shadow="0">
      <root>
        <mxCell id="0" />
        <mxCell id="1" parent="0" />
        <mxCell id="fcRQ1zOnm9zzdm4BlzEY-2" value="Create account" style="ellipse;whiteSpace=wrap;html=1;" vertex="1" parent="1">
          <mxGeometry x="280" y="380" width="170" height="30" as="geometry" />
        </mxCell>
        <mxCell id="fcRQ1zOnm9zzdm4BlzEY-24" value="verify account" style="ellipse;whiteSpace=wrap;html=1;" vertex="1" parent="1">
          <mxGeometry x="525" y="430" width="105" height="40" as="geometry" />
        </mxCell>
        <mxCell id="fcRQ1zOnm9zzdm4BlzEY-25" value="Log in" style="ellipse;whiteSpace=wrap;html=1;" vertex="1" parent="1">
          <mxGeometry x="287.5" y="430" width="155" height="40" as="geometry" />
        </mxCell>
        <mxCell id="fcRQ1zOnm9zzdm4BlzEY-28" value="Teacher" style="shape=umlActor;verticalLabelPosition=bottom;verticalAlign=top;html=1;" vertex="1" parent="1">
          <mxGeometry x="40" y="1210" width="30" height="60" as="geometry" />
        </mxCell>
        <mxCell id="fcRQ1zOnm9zzdm4BlzEY-29" value="Student" style="shape=umlActor;verticalLabelPosition=bottom;verticalAlign=top;html=1;" vertex="1" parent="1">
          <mxGeometry x="860" y="480" width="30" height="60" as="geometry" />
        </mxCell>
        <mxCell id="fcRQ1zOnm9zzdm4BlzEY-30" value="Admin" style="shape=umlActor;verticalLabelPosition=bottom;verticalAlign=top;html=1;" vertex="1" parent="1">
          <mxGeometry x="60" y="490" width="30" height="60" as="geometry" />
        </mxCell>
        <mxCell id="fcRQ1zOnm9zzdm4BlzEY-36" value="extends" style="endArrow=open;endSize=12;dashed=1;html=1;rounded=0;" edge="1" parent="1">
          <mxGeometry width="160" relative="1" as="geometry">
            <mxPoint x="450" y="450" as="sourcePoint" />
            <mxPoint x="520" y="450" as="targetPoint" />
          </mxGeometry>
        </mxCell>
        <mxCell id="fcRQ1zOnm9zzdm4BlzEY-37" value="create account" style="ellipse;whiteSpace=wrap;html=1;" vertex="1" parent="1">
          <mxGeometry x="287.5" y="500" width="155" height="40" as="geometry" />
        </mxCell>
        <mxCell id="fcRQ1zOnm9zzdm4BlzEY-38" value="Set enrollment and admission dates" style="ellipse;whiteSpace=wrap;html=1;" vertex="1" parent="1">
          <mxGeometry x="290" y="560" width="155" height="40" as="geometry" />
        </mxCell>
        <mxCell id="fcRQ1zOnm9zzdm4BlzEY-39" value="view enrollment and admission schedule" style="ellipse;whiteSpace=wrap;html=1;" vertex="1" parent="1">
          <mxGeometry x="510" y="560" width="155" height="40" as="geometry" />
        </mxCell>
        <mxCell id="fcRQ1zOnm9zzdm4BlzEY-40" value="includes" style="endArrow=open;endSize=12;dashed=1;html=1;rounded=0;" edge="1" parent="1" target="fcRQ1zOnm9zzdm4BlzEY-39">
          <mxGeometry width="160" relative="1" as="geometry">
            <mxPoint x="450" y="580" as="sourcePoint" />
            <mxPoint x="530" y="460" as="targetPoint" />
            <Array as="points">
              <mxPoint x="470" y="580" />
            </Array>
          </mxGeometry>
        </mxCell>
        <mxCell id="fcRQ1zOnm9zzdm4BlzEY-41" value="request school documents" style="ellipse;whiteSpace=wrap;html=1;" vertex="1" parent="1">
          <mxGeometry x="305" y="630" width="155" height="40" as="geometry" />
        </mxCell>
        <mxCell id="fcRQ1zOnm9zzdm4BlzEY-43" value="" style="endArrow=open;endFill=1;endSize=12;html=1;rounded=0;entryX=1;entryY=0.5;entryDx=0;entryDy=0;" edge="1" parent="1" target="fcRQ1zOnm9zzdm4BlzEY-41">
          <mxGeometry width="160" relative="1" as="geometry">
            <mxPoint x="850" y="530" as="sourcePoint" />
            <mxPoint x="750" y="730" as="targetPoint" />
            <Array as="points">
              <mxPoint x="720" y="580" />
            </Array>
          </mxGeometry>
        </mxCell>
        <mxCell id="fcRQ1zOnm9zzdm4BlzEY-44" value="validation/review of request documents" style="ellipse;whiteSpace=wrap;html=1;" vertex="1" parent="1">
          <mxGeometry x="297.5" y="710" width="155" height="40" as="geometry" />
        </mxCell>
        <mxCell id="fcRQ1zOnm9zzdm4BlzEY-45" value="set schedule" style="ellipse;whiteSpace=wrap;html=1;" vertex="1" parent="1">
          <mxGeometry x="290" y="770" width="155" height="40" as="geometry" />
        </mxCell>
        <mxCell id="fcRQ1zOnm9zzdm4BlzEY-46" value="view schedule" style="ellipse;whiteSpace=wrap;html=1;" vertex="1" parent="1">
          <mxGeometry x="287.5" y="840" width="155" height="40" as="geometry" />
        </mxCell>
        <mxCell id="fcRQ1zOnm9zzdm4BlzEY-47" value="includes" style="endArrow=open;endSize=12;dashed=1;html=1;rounded=0;entryX=0.5;entryY=0;entryDx=0;entryDy=0;exitX=0.413;exitY=1.05;exitDx=0;exitDy=0;exitPerimeter=0;" edge="1" parent="1" source="fcRQ1zOnm9zzdm4BlzEY-41" target="fcRQ1zOnm9zzdm4BlzEY-44">
          <mxGeometry width="160" relative="1" as="geometry">
            <mxPoint x="370" y="750" as="sourcePoint" />
            <mxPoint x="620" y="740" as="targetPoint" />
          </mxGeometry>
        </mxCell>
        <mxCell id="fcRQ1zOnm9zzdm4BlzEY-48" value="includes" style="endArrow=block;dashed=1;endFill=0;endSize=12;html=1;rounded=0;entryX=0.5;entryY=0;entryDx=0;entryDy=0;" edge="1" parent="1" source="fcRQ1zOnm9zzdm4BlzEY-44" target="fcRQ1zOnm9zzdm4BlzEY-45">
          <mxGeometry width="160" relative="1" as="geometry">
            <mxPoint x="560" y="710" as="sourcePoint" />
            <mxPoint x="290" y="740" as="targetPoint" />
          </mxGeometry>
        </mxCell>
        <mxCell id="fcRQ1zOnm9zzdm4BlzEY-49" value="includes" style="endArrow=block;dashed=1;endFill=0;endSize=12;html=1;rounded=0;exitX=0.387;exitY=1.05;exitDx=0;exitDy=0;exitPerimeter=0;" edge="1" parent="1" source="fcRQ1zOnm9zzdm4BlzEY-45" target="fcRQ1zOnm9zzdm4BlzEY-46">
          <mxGeometry width="160" relative="1" as="geometry">
            <mxPoint x="170" y="639.5" as="sourcePoint" />
            <mxPoint x="300" y="640" as="targetPoint" />
            <Array as="points" />
          </mxGeometry>
        </mxCell>
        <mxCell id="fcRQ1zOnm9zzdm4BlzEY-50" value="" style="endArrow=open;endFill=1;endSize=12;html=1;rounded=0;entryX=0;entryY=0.5;entryDx=0;entryDy=0;" edge="1" parent="1" target="fcRQ1zOnm9zzdm4BlzEY-2">
          <mxGeometry width="160" relative="1" as="geometry">
            <mxPoint x="110" y="520" as="sourcePoint" />
            <mxPoint x="270" y="520" as="targetPoint" />
          </mxGeometry>
        </mxCell>
        <mxCell id="fcRQ1zOnm9zzdm4BlzEY-51" value="" style="endArrow=open;endFill=1;endSize=12;html=1;rounded=0;entryX=0;entryY=0.5;entryDx=0;entryDy=0;" edge="1" parent="1" target="fcRQ1zOnm9zzdm4BlzEY-25">
          <mxGeometry width="160" relative="1" as="geometry">
            <mxPoint x="120" y="530" as="sourcePoint" />
            <mxPoint x="290" y="405" as="targetPoint" />
          </mxGeometry>
        </mxCell>
        <mxCell id="fcRQ1zOnm9zzdm4BlzEY-52" value="" style="endArrow=open;endFill=1;endSize=12;html=1;rounded=0;" edge="1" parent="1" target="fcRQ1zOnm9zzdm4BlzEY-37">
          <mxGeometry width="160" relative="1" as="geometry">
            <mxPoint x="130" y="540" as="sourcePoint" />
            <mxPoint x="297.5" y="460" as="targetPoint" />
          </mxGeometry>
        </mxCell>
        <mxCell id="fcRQ1zOnm9zzdm4BlzEY-53" value="" style="endArrow=open;endFill=1;endSize=12;html=1;rounded=0;" edge="1" parent="1" target="fcRQ1zOnm9zzdm4BlzEY-38">
          <mxGeometry width="160" relative="1" as="geometry">
            <mxPoint x="140" y="550" as="sourcePoint" />
            <mxPoint x="301.3991208263992" y="536.2639046105191" as="targetPoint" />
          </mxGeometry>
        </mxCell>
        <mxCell id="fcRQ1zOnm9zzdm4BlzEY-54" value="" style="endArrow=open;endFill=1;endSize=12;html=1;rounded=0;" edge="1" parent="1">
          <mxGeometry width="160" relative="1" as="geometry">
            <mxPoint x="140" y="570" as="sourcePoint" />
            <mxPoint x="298" y="650" as="targetPoint" />
          </mxGeometry>
        </mxCell>
        <mxCell id="fcRQ1zOnm9zzdm4BlzEY-55" value="" style="endArrow=open;endFill=1;endSize=12;html=1;rounded=0;entryX=0;entryY=0.5;entryDx=0;entryDy=0;" edge="1" parent="1" target="fcRQ1zOnm9zzdm4BlzEY-44">
          <mxGeometry width="160" relative="1" as="geometry">
            <mxPoint x="140" y="580" as="sourcePoint" />
            <mxPoint x="297.5" y="740" as="targetPoint" />
          </mxGeometry>
        </mxCell>
        <mxCell id="fcRQ1zOnm9zzdm4BlzEY-56" value="" style="endArrow=open;endFill=1;endSize=12;html=1;rounded=0;entryX=0;entryY=0.5;entryDx=0;entryDy=0;" edge="1" parent="1" target="fcRQ1zOnm9zzdm4BlzEY-45">
          <mxGeometry width="160" relative="1" as="geometry">
            <mxPoint x="130" y="590" as="sourcePoint" />
            <mxPoint x="280" y="780" as="targetPoint" />
          </mxGeometry>
        </mxCell>
        <mxCell id="fcRQ1zOnm9zzdm4BlzEY-58" value="" style="endArrow=open;endFill=1;endSize=12;html=1;rounded=0;" edge="1" parent="1">
          <mxGeometry width="160" relative="1" as="geometry">
            <mxPoint x="830" y="520" as="sourcePoint" />
            <mxPoint x="670" y="560" as="targetPoint" />
          </mxGeometry>
        </mxCell>
        <mxCell id="fcRQ1zOnm9zzdm4BlzEY-59" value="" style="endArrow=open;endFill=1;endSize=12;html=1;rounded=0;entryX=1;entryY=0.5;entryDx=0;entryDy=0;" edge="1" parent="1" target="fcRQ1zOnm9zzdm4BlzEY-46">
          <mxGeometry width="160" relative="1" as="geometry">
            <mxPoint x="839.9999999999998" y="560" as="sourcePoint" />
            <mxPoint x="679.9999999999998" y="600" as="targetPoint" />
          </mxGeometry>
        </mxCell>
        <mxCell id="fcRQ1zOnm9zzdm4BlzEY-60" value="Deped school calendar events" style="ellipse;whiteSpace=wrap;html=1;" vertex="1" parent="1">
          <mxGeometry x="280" y="920" width="155" height="40" as="geometry" />
        </mxCell>
        <mxCell id="fcRQ1zOnm9zzdm4BlzEY-61" value="add school events" style="ellipse;whiteSpace=wrap;html=1;" vertex="1" parent="1">
          <mxGeometry x="270" y="990" width="155" height="40" as="geometry" />
        </mxCell>
        <mxCell id="fcRQ1zOnm9zzdm4BlzEY-62" value="receive school events via email" style="ellipse;whiteSpace=wrap;html=1;" vertex="1" parent="1">
          <mxGeometry x="260" y="1070" width="155" height="40" as="geometry" />
        </mxCell>
        <mxCell id="fcRQ1zOnm9zzdm4BlzEY-63" value="assign section to the students" style="ellipse;whiteSpace=wrap;html=1;" vertex="1" parent="1">
          <mxGeometry x="260" y="1140" width="155" height="40" as="geometry" />
        </mxCell>
        <mxCell id="fcRQ1zOnm9zzdm4BlzEY-65" value="view the list of the students, assigned per section" style="ellipse;whiteSpace=wrap;html=1;" vertex="1" parent="1">
          <mxGeometry x="260" y="1360" width="155" height="40" as="geometry" />
        </mxCell>
        <mxCell id="fcRQ1zOnm9zzdm4BlzEY-67" value="includes" style="endArrow=block;dashed=1;endFill=0;endSize=12;html=1;rounded=0;entryX=0.5;entryY=0;entryDx=0;entryDy=0;exitX=0.387;exitY=1;exitDx=0;exitDy=0;exitPerimeter=0;" edge="1" parent="1" source="fcRQ1zOnm9zzdm4BlzEY-60" target="fcRQ1zOnm9zzdm4BlzEY-61">
          <mxGeometry width="160" relative="1" as="geometry">
            <mxPoint x="348" y="970" as="sourcePoint" />
            <mxPoint x="510" y="950" as="targetPoint" />
          </mxGeometry>
        </mxCell>
        <mxCell id="fcRQ1zOnm9zzdm4BlzEY-68" value="includes" style="endArrow=block;dashed=1;endFill=0;endSize=12;html=1;rounded=0;entryX=0.5;entryY=0;entryDx=0;entryDy=0;exitX=0.452;exitY=1;exitDx=0;exitDy=0;exitPerimeter=0;" edge="1" parent="1" source="fcRQ1zOnm9zzdm4BlzEY-61" target="fcRQ1zOnm9zzdm4BlzEY-62">
          <mxGeometry width="160" relative="1" as="geometry">
            <mxPoint x="330" y="1020" as="sourcePoint" />
            <mxPoint x="490" y="1020" as="targetPoint" />
          </mxGeometry>
        </mxCell>
        <mxCell id="fcRQ1zOnm9zzdm4BlzEY-69" value="Disable accounts" style="ellipse;whiteSpace=wrap;html=1;" vertex="1" parent="1">
          <mxGeometry x="260" y="1430" width="155" height="40" as="geometry" />
        </mxCell>
        <mxCell id="fcRQ1zOnm9zzdm4BlzEY-70" value="" style="endArrow=open;endFill=1;endSize=12;html=1;rounded=0;entryX=0;entryY=0.5;entryDx=0;entryDy=0;" edge="1" parent="1">
          <mxGeometry width="160" relative="1" as="geometry">
            <mxPoint x="100" y="580" as="sourcePoint" />
            <mxPoint x="280" y="940.0000000000002" as="targetPoint" />
          </mxGeometry>
        </mxCell>
        <mxCell id="fcRQ1zOnm9zzdm4BlzEY-71" value="" style="endArrow=open;endFill=1;endSize=12;html=1;rounded=0;entryX=0;entryY=0.75;entryDx=0;entryDy=0;entryPerimeter=0;" edge="1" parent="1" target="fcRQ1zOnm9zzdm4BlzEY-62">
          <mxGeometry width="160" relative="1" as="geometry">
            <mxPoint x="90" y="1230" as="sourcePoint" />
            <mxPoint x="250" y="1090" as="targetPoint" />
          </mxGeometry>
        </mxCell>
        <mxCell id="fcRQ1zOnm9zzdm4BlzEY-73" value="" style="endArrow=open;endFill=1;endSize=12;html=1;rounded=0;entryX=1;entryY=0.5;entryDx=0;entryDy=0;" edge="1" parent="1">
          <mxGeometry width="160" relative="1" as="geometry">
            <mxPoint x="860" y="570" as="sourcePoint" />
            <mxPoint x="435" y="940" as="targetPoint" />
          </mxGeometry>
        </mxCell>
        <mxCell id="fcRQ1zOnm9zzdm4BlzEY-74" value="" style="endArrow=open;endFill=1;endSize=12;html=1;rounded=0;" edge="1" parent="1">
          <mxGeometry width="160" relative="1" as="geometry">
            <mxPoint x="880" y="590" as="sourcePoint" />
            <mxPoint x="420" y="1090" as="targetPoint" />
          </mxGeometry>
        </mxCell>
        <mxCell id="fcRQ1zOnm9zzdm4BlzEY-75" value="" style="endArrow=open;endFill=1;endSize=12;html=1;rounded=0;" edge="1" parent="1">
          <mxGeometry width="160" relative="1" as="geometry">
            <mxPoint x="80" y="600" as="sourcePoint" />
            <mxPoint x="270" y="1000" as="targetPoint" />
          </mxGeometry>
        </mxCell>
        <mxCell id="fcRQ1zOnm9zzdm4BlzEY-76" value="" style="endArrow=open;endFill=1;endSize=12;html=1;rounded=0;entryX=0;entryY=0;entryDx=0;entryDy=0;" edge="1" parent="1" target="fcRQ1zOnm9zzdm4BlzEY-63">
          <mxGeometry width="160" relative="1" as="geometry">
            <mxPoint x="70" y="590" as="sourcePoint" />
            <mxPoint x="250" y="1170" as="targetPoint" />
          </mxGeometry>
        </mxCell>
        <mxCell id="fcRQ1zOnm9zzdm4BlzEY-80" value="" style="endArrow=open;endFill=1;endSize=12;html=1;rounded=0;entryX=0;entryY=0.5;entryDx=0;entryDy=0;" edge="1" parent="1" target="fcRQ1zOnm9zzdm4BlzEY-65">
          <mxGeometry width="160" relative="1" as="geometry">
            <mxPoint x="100" y="1240" as="sourcePoint" />
            <mxPoint x="270" y="1110" as="targetPoint" />
          </mxGeometry>
        </mxCell>
        <mxCell id="fcRQ1zOnm9zzdm4BlzEY-81" value="assign the teacher per section&amp;nbsp;" style="ellipse;whiteSpace=wrap;html=1;" vertex="1" parent="1">
          <mxGeometry x="260" y="1280" width="155" height="40" as="geometry" />
        </mxCell>
        <mxCell id="fcRQ1zOnm9zzdm4BlzEY-82" value="view section" style="ellipse;whiteSpace=wrap;html=1;" vertex="1" parent="1">
          <mxGeometry x="260" y="1210" width="155" height="40" as="geometry" />
        </mxCell>
        <mxCell id="fcRQ1zOnm9zzdm4BlzEY-83" value="includes" style="endArrow=open;endSize=12;dashed=1;html=1;rounded=0;entryX=0.381;entryY=-0.05;entryDx=0;entryDy=0;entryPerimeter=0;" edge="1" parent="1" target="fcRQ1zOnm9zzdm4BlzEY-82">
          <mxGeometry width="160" relative="1" as="geometry">
            <mxPoint x="320" y="1180" as="sourcePoint" />
            <mxPoint x="480" y="1180" as="targetPoint" />
          </mxGeometry>
        </mxCell>
        <mxCell id="fcRQ1zOnm9zzdm4BlzEY-84" value="includes" style="endArrow=open;endSize=12;dashed=1;html=1;rounded=0;exitX=0.5;exitY=1;exitDx=0;exitDy=0;" edge="1" parent="1" source="fcRQ1zOnm9zzdm4BlzEY-81" target="fcRQ1zOnm9zzdm4BlzEY-65">
          <mxGeometry width="160" relative="1" as="geometry">
            <mxPoint x="270" y="1220" as="sourcePoint" />
            <mxPoint x="430" y="1220" as="targetPoint" />
          </mxGeometry>
        </mxCell>
        <mxCell id="fcRQ1zOnm9zzdm4BlzEY-85" value="" style="endArrow=open;endFill=1;endSize=12;html=1;rounded=0;entryX=0.039;entryY=0.2;entryDx=0;entryDy=0;entryPerimeter=0;" edge="1" parent="1" target="fcRQ1zOnm9zzdm4BlzEY-69">
          <mxGeometry width="160" relative="1" as="geometry">
            <mxPoint x="70" y="1290" as="sourcePoint" />
            <mxPoint x="276.474315530484" y="1411.6725914526064" as="targetPoint" />
          </mxGeometry>
        </mxCell>
        <mxCell id="fcRQ1zOnm9zzdm4BlzEY-86" value="" style="endArrow=open;endFill=1;endSize=12;html=1;rounded=0;entryX=0;entryY=0.5;entryDx=0;entryDy=0;" edge="1" parent="1" target="fcRQ1zOnm9zzdm4BlzEY-81">
          <mxGeometry width="160" relative="1" as="geometry">
            <mxPoint x="60" y="580" as="sourcePoint" />
            <mxPoint x="292.8768592873952" y="1155.8121712434795" as="targetPoint" />
          </mxGeometry>
        </mxCell>
        <mxCell id="fcRQ1zOnm9zzdm4BlzEY-87" value="" style="endArrow=open;endFill=1;endSize=12;html=1;rounded=0;" edge="1" parent="1">
          <mxGeometry width="160" relative="1" as="geometry">
            <mxPoint x="890" y="600" as="sourcePoint" />
            <mxPoint x="420" y="1220" as="targetPoint" />
          </mxGeometry>
        </mxCell>
        <mxCell id="fcRQ1zOnm9zzdm4BlzEY-88" value="" style="endArrow=open;endFill=1;endSize=12;html=1;rounded=0;" edge="1" parent="1">
          <mxGeometry width="160" relative="1" as="geometry">
            <mxPoint x="900" y="610" as="sourcePoint" />
            <mxPoint x="420" y="1440" as="targetPoint" />
          </mxGeometry>
        </mxCell>
      </root>
    </mxGraphModel>
  </diagram>
</mxfile>
